<mxfile host="app.diagrams.net" modified="2023-05-23T13:51:34.705Z" agent="Mozilla/5.0 (Windows NT 10.0; Win64; x64) AppleWebKit/537.36 (KHTML, like Gecko) Chrome/113.0.0.0 Safari/537.36" etag="V3hLyoJqF9p0pHqeztXs" version="21.3.2" type="device">
  <diagram name="PÃ¡gina-1" id="fCuh3eIZkhNP9-QvOTHv">
    <mxGraphModel dx="1050" dy="549" grid="1" gridSize="10" guides="1" tooltips="1" connect="1" arrows="1" fold="1" page="1" pageScale="1" pageWidth="827" pageHeight="1169" math="0" shadow="0">
      <root>
        <mxCell id="0" />
        <mxCell id="1" parent="0" />
        <mxCell id="3r3wucRNaQHs6SfO-3Jq-13" value="" style="rounded=1;whiteSpace=wrap;html=1;" vertex="1" parent="1">
          <mxGeometry x="40" y="150" width="330" height="370" as="geometry" />
        </mxCell>
        <mxCell id="3r3wucRNaQHs6SfO-3Jq-1" value="" style="rounded=1;whiteSpace=wrap;html=1;" vertex="1" parent="1">
          <mxGeometry x="190" y="170" width="170" height="230" as="geometry" />
        </mxCell>
        <mxCell id="3r3wucRNaQHs6SfO-3Jq-2" value="Reddis" style="rounded=1;whiteSpace=wrap;html=1;fillColor=#f8cecc;strokeColor=#b85450;" vertex="1" parent="1">
          <mxGeometry x="215" y="350" width="120" height="40" as="geometry" />
        </mxCell>
        <mxCell id="3r3wucRNaQHs6SfO-3Jq-4" style="edgeStyle=orthogonalEdgeStyle;rounded=0;orthogonalLoop=1;jettySize=auto;html=1;entryX=0.5;entryY=1;entryDx=0;entryDy=0;" edge="1" parent="1" source="3r3wucRNaQHs6SfO-3Jq-3" target="3r3wucRNaQHs6SfO-3Jq-1">
          <mxGeometry relative="1" as="geometry" />
        </mxCell>
        <mxCell id="3r3wucRNaQHs6SfO-3Jq-3" value="Jenkins" style="rounded=1;whiteSpace=wrap;html=1;" vertex="1" parent="1">
          <mxGeometry x="215" y="440" width="120" height="60" as="geometry" />
        </mxCell>
        <mxCell id="3r3wucRNaQHs6SfO-3Jq-5" value="MySQL" style="rounded=1;whiteSpace=wrap;html=1;fillColor=#dae8fc;strokeColor=#6c8ebf;" vertex="1" parent="1">
          <mxGeometry x="215" y="300" width="120" height="40" as="geometry" />
        </mxCell>
        <mxCell id="3r3wucRNaQHs6SfO-3Jq-6" value="CRON" style="rounded=1;whiteSpace=wrap;html=1;fillColor=#fff2cc;strokeColor=#d6b656;" vertex="1" parent="1">
          <mxGeometry x="215" y="250" width="120" height="40" as="geometry" />
        </mxCell>
        <mxCell id="3r3wucRNaQHs6SfO-3Jq-9" value="443" style="edgeStyle=orthogonalEdgeStyle;rounded=0;orthogonalLoop=1;jettySize=auto;html=1;" edge="1" parent="1" source="3r3wucRNaQHs6SfO-3Jq-7">
          <mxGeometry relative="1" as="geometry">
            <mxPoint x="470" y="210" as="targetPoint" />
          </mxGeometry>
        </mxCell>
        <mxCell id="3r3wucRNaQHs6SfO-3Jq-7" value="Laravel" style="rounded=1;whiteSpace=wrap;html=1;fillColor=#d5e8d4;strokeColor=#82b366;" vertex="1" parent="1">
          <mxGeometry x="215" y="180" width="120" height="60" as="geometry" />
        </mxCell>
        <mxCell id="3r3wucRNaQHs6SfO-3Jq-14" style="edgeStyle=orthogonalEdgeStyle;rounded=0;orthogonalLoop=1;jettySize=auto;html=1;entryX=0;entryY=0.5;entryDx=0;entryDy=0;" edge="1" parent="1" source="3r3wucRNaQHs6SfO-3Jq-11" target="3r3wucRNaQHs6SfO-3Jq-3">
          <mxGeometry relative="1" as="geometry" />
        </mxCell>
        <mxCell id="3r3wucRNaQHs6SfO-3Jq-11" value="GitHub" style="rounded=1;whiteSpace=wrap;html=1;" vertex="1" parent="1">
          <mxGeometry x="70" y="440" width="120" height="60" as="geometry" />
        </mxCell>
        <mxCell id="3r3wucRNaQHs6SfO-3Jq-18" value="Cliente" style="shape=umlActor;verticalLabelPosition=bottom;verticalAlign=top;html=1;outlineConnect=0;" vertex="1" parent="1">
          <mxGeometry x="480" y="180" width="30" height="60" as="geometry" />
        </mxCell>
      </root>
    </mxGraphModel>
  </diagram>
</mxfile>
